<svg xmlns="http://www.w3.org/2000/svg" width="390" height="424" viewBox="0 0 390 424">
<rect width="390" height="424" fill="#06080c"/>
<g>
<circle cx="39.0" cy="39.0" r="9.5" fill="#cfeaf2" opacity="0.050"/>
<circle cx="65.0" cy="39.0" r="9.5" fill="#cfeaf2" opacity="0.050"/>
<circle cx="91.0" cy="39.0" r="9.5" fill="#cfeaf2" opacity="0.050"/>
<circle cx="117.0" cy="39.0" r="9.5" fill="#cfeaf2" opacity="0.050"/>
<circle cx="143.0" cy="39.0" r="9.5" fill="#cfeaf2" opacity="0.050"/>
<circle cx="169.0" cy="39.0" r="9.5" fill="#cfeaf2" opacity="0.431"/>
<circle cx="195.0" cy="39.0" r="9.5" fill="#cfeaf2" opacity="0.431"/>
<circle cx="221.0" cy="39.0" r="9.5" fill="#cfeaf2" opacity="0.431"/>
<circle cx="247.0" cy="39.0" r="9.5" fill="#cfeaf2" opacity="0.050"/>
<circle cx="273.0" cy="39.0" r="9.5" fill="#cfeaf2" opacity="0.050"/>
<circle cx="299.0" cy="39.0" r="9.5" fill="#cfeaf2" opacity="0.050"/>
<circle cx="325.0" cy="39.0" r="9.5" fill="#cfeaf2" opacity="0.050"/>
<circle cx="351.0" cy="39.0" r="9.5" fill="#cfeaf2" opacity="0.050"/>
<circle cx="39.0" cy="65.0" r="9.5" fill="#cfeaf2" opacity="0.050"/>
<circle cx="65.0" cy="65.0" r="9.5" fill="#cfeaf2" opacity="0.050"/>
<circle cx="91.0" cy="65.0" r="9.5" fill="#cfeaf2" opacity="0.050"/>
<circle cx="117.0" cy="65.0" r="9.5" fill="#cfeaf2" opacity="0.431"/>
<circle cx="143.0" cy="65.0" r="9.5" fill="#cfeaf2" opacity="0.431"/>
<circle cx="169.0" cy="65.0" r="9.5" fill="#cfeaf2" opacity="0.050"/>
<circle cx="195.0" cy="65.0" r="9.5" fill="#cfeaf2" opacity="0.050"/>
<circle cx="221.0" cy="65.0" r="9.5" fill="#cfeaf2" opacity="0.050"/>
<circle cx="247.0" cy="65.0" r="9.5" fill="#cfeaf2" opacity="0.431"/>
<circle cx="273.0" cy="65.0" r="9.5" fill="#cfeaf2" opacity="0.431"/>
<circle cx="299.0" cy="65.0" r="9.5" fill="#cfeaf2" opacity="0.050"/>
<circle cx="325.0" cy="65.0" r="9.5" fill="#cfeaf2" opacity="0.050"/>
<circle cx="351.0" cy="65.0" r="9.5" fill="#cfeaf2" opacity="0.050"/>
<circle cx="39.0" cy="91.0" r="9.5" fill="#cfeaf2" opacity="0.050"/>
<circle cx="65.0" cy="91.0" r="9.5" fill="#cfeaf2" opacity="0.050"/>
<circle cx="91.0" cy="91.0" r="9.5" fill="#cfeaf2" opacity="0.603"/>
<circle cx="117.0" cy="91.0" r="9.5" fill="#cfeaf2" opacity="0.603"/>
<circle cx="143.0" cy="91.0" r="9.5" fill="#cfeaf2" opacity="0.603"/>
<circle cx="169.0" cy="91.0" r="9.5" fill="#cfeaf2" opacity="0.603"/>
<circle cx="195.0" cy="91.0" r="9.5" fill="#cfeaf2" opacity="0.603"/>
<circle cx="221.0" cy="91.0" r="9.5" fill="#cfeaf2" opacity="0.603"/>
<circle cx="247.0" cy="91.0" r="9.5" fill="#cfeaf2" opacity="0.603"/>
<circle cx="273.0" cy="91.0" r="9.5" fill="#cfeaf2" opacity="0.603"/>
<circle cx="299.0" cy="91.0" r="9.5" fill="#cfeaf2" opacity="0.603"/>
<circle cx="325.0" cy="91.0" r="9.5" fill="#cfeaf2" opacity="0.050"/>
<circle cx="351.0" cy="91.0" r="9.5" fill="#cfeaf2" opacity="0.050"/>
<circle cx="39.0" cy="117.0" r="9.5" fill="#cfeaf2" opacity="0.050"/>
<circle cx="65.0" cy="117.0" r="9.5" fill="#cfeaf2" opacity="0.455"/>
<circle cx="91.0" cy="117.0" r="9.5" fill="#cfeaf2" opacity="0.455"/>
<circle cx="117.0" cy="117.0" r="9.5" fill="#cfeaf2" opacity="0.455"/>
<circle cx="143.0" cy="117.0" r="9.5" fill="#cfeaf2" opacity="0.455"/>
<circle cx="169.0" cy="117.0" r="9.5" fill="#cfeaf2" opacity="0.455"/>
<circle cx="195.0" cy="117.0" r="9.5" fill="#cfeaf2" opacity="0.455"/>
<circle cx="221.0" cy="117.0" r="9.5" fill="#cfeaf2" opacity="0.455"/>
<circle cx="247.0" cy="117.0" r="9.5" fill="#cfeaf2" opacity="0.455"/>
<circle cx="273.0" cy="117.0" r="9.5" fill="#cfeaf2" opacity="0.455"/>
<circle cx="299.0" cy="117.0" r="9.5" fill="#cfeaf2" opacity="0.455"/>
<circle cx="325.0" cy="117.0" r="9.5" fill="#cfeaf2" opacity="0.455"/>
<circle cx="351.0" cy="117.0" r="9.5" fill="#cfeaf2" opacity="0.050"/>
<circle cx="39.0" cy="143.0" r="9.5" fill="#cfeaf2" opacity="0.050"/>
<circle cx="65.0" cy="143.0" r="9.5" fill="#cfeaf2" opacity="0.503"/>
<circle cx="91.0" cy="143.0" r="9.5" fill="#cfeaf2" opacity="0.503"/>
<circle cx="117.0" cy="143.0" r="9.5" fill="#cfeaf2" opacity="0.503"/>
<circle cx="143.0" cy="143.0" r="9.5" fill="#cfeaf2" opacity="0.503"/>
<circle cx="169.0" cy="143.0" r="9.5" fill="#cfeaf2" opacity="0.503"/>
<circle cx="195.0" cy="143.0" r="9.5" fill="#cfeaf2" opacity="0.503"/>
<circle cx="221.0" cy="143.0" r="9.5" fill="#cfeaf2" opacity="0.503"/>
<circle cx="247.0" cy="143.0" r="9.5" fill="#cfeaf2" opacity="0.503"/>
<circle cx="273.0" cy="143.0" r="9.5" fill="#cfeaf2" opacity="0.503"/>
<circle cx="299.0" cy="143.0" r="9.5" fill="#cfeaf2" opacity="0.503"/>
<circle cx="325.0" cy="143.0" r="9.5" fill="#cfeaf2" opacity="0.503"/>
<circle cx="351.0" cy="143.0" r="9.5" fill="#cfeaf2" opacity="0.050"/>
<circle cx="39.0" cy="169.0" r="9.5" fill="#cfeaf2" opacity="0.645"/>
<circle cx="65.0" cy="169.0" r="9.5" fill="#cfeaf2" opacity="0.645"/>
<circle cx="91.0" cy="169.0" r="9.5" fill="#cfeaf2" opacity="0.645"/>
<circle cx="117.0" cy="169.0" r="9.5" fill="#cfeaf2" opacity="0.645"/>
<circle cx="143.0" cy="169.0" r="9.5" fill="#cfeaf2" opacity="0.645"/>
<circle cx="169.0" cy="169.0" r="9.5" fill="#cfeaf2" opacity="0.645"/>
<circle cx="195.0" cy="169.0" r="9.5" fill="#cfeaf2" opacity="0.645"/>
<circle cx="221.0" cy="169.0" r="9.5" fill="#cfeaf2" opacity="0.645"/>
<circle cx="247.0" cy="169.0" r="9.5" fill="#cfeaf2" opacity="0.645"/>
<circle cx="273.0" cy="169.0" r="9.5" fill="#cfeaf2" opacity="0.645"/>
<circle cx="299.0" cy="169.0" r="9.5" fill="#cfeaf2" opacity="0.645"/>
<circle cx="325.0" cy="169.0" r="9.5" fill="#cfeaf2" opacity="0.645"/>
<circle cx="351.0" cy="169.0" r="9.5" fill="#cfeaf2" opacity="0.645"/>
<circle cx="39.0" cy="195.0" r="9.5" fill="#cfeaf2" opacity="0.872"/>
<circle cx="65.0" cy="195.0" r="9.5" fill="#cfeaf2" opacity="0.872"/>
<circle cx="91.0" cy="195.0" r="9.5" fill="#cfeaf2" opacity="0.872"/>
<circle cx="117.0" cy="195.0" r="9.5" fill="#cfeaf2" opacity="0.872"/>
<circle cx="143.0" cy="195.0" r="9.5" fill="#cfeaf2" opacity="0.872"/>
<circle cx="169.0" cy="195.0" r="9.5" fill="#cfeaf2" opacity="0.872"/>
<circle cx="195.0" cy="195.0" r="9.5" fill="#cfeaf2" opacity="0.872"/>
<circle cx="221.0" cy="195.0" r="9.5" fill="#cfeaf2" opacity="0.872"/>
<circle cx="247.0" cy="195.0" r="9.5" fill="#cfeaf2" opacity="0.872"/>
<circle cx="273.0" cy="195.0" r="9.5" fill="#cfeaf2" opacity="0.872"/>
<circle cx="299.0" cy="195.0" r="9.5" fill="#cfeaf2" opacity="0.872"/>
<circle cx="325.0" cy="195.0" r="9.5" fill="#cfeaf2" opacity="0.872"/>
<circle cx="351.0" cy="195.0" r="9.5" fill="#cfeaf2" opacity="0.872"/>
<circle cx="39.0" cy="221.0" r="9.5" fill="#cfeaf2" opacity="1.000"/>
<circle cx="65.0" cy="221.0" r="9.5" fill="#cfeaf2" opacity="1.000"/>
<circle cx="91.0" cy="221.0" r="9.5" fill="#cfeaf2" opacity="1.000"/>
<circle cx="117.0" cy="221.0" r="9.5" fill="#cfeaf2" opacity="1.000"/>
<circle cx="143.0" cy="221.0" r="9.5" fill="#cfeaf2" opacity="1.000"/>
<circle cx="169.0" cy="221.0" r="9.5" fill="#cfeaf2" opacity="1.000"/>
<circle cx="195.0" cy="221.0" r="9.5" fill="#cfeaf2" opacity="1.000"/>
<circle cx="221.0" cy="221.0" r="9.5" fill="#cfeaf2" opacity="1.000"/>
<circle cx="247.0" cy="221.0" r="9.5" fill="#cfeaf2" opacity="1.000"/>
<circle cx="273.0" cy="221.0" r="9.5" fill="#cfeaf2" opacity="1.000"/>
<circle cx="299.0" cy="221.0" r="9.5" fill="#cfeaf2" opacity="1.000"/>
<circle cx="325.0" cy="221.0" r="9.5" fill="#cfeaf2" opacity="1.000"/>
<circle cx="351.0" cy="221.0" r="9.5" fill="#cfeaf2" opacity="1.000"/>
<circle cx="39.0" cy="247.0" r="9.5" fill="#cfeaf2" opacity="0.050"/>
<circle cx="65.0" cy="247.0" r="9.5" fill="#cfeaf2" opacity="0.872"/>
<circle cx="91.0" cy="247.0" r="9.5" fill="#cfeaf2" opacity="0.872"/>
<circle cx="117.0" cy="247.0" r="9.5" fill="#cfeaf2" opacity="0.872"/>
<circle cx="143.0" cy="247.0" r="9.5" fill="#cfeaf2" opacity="0.872"/>
<circle cx="169.0" cy="247.0" r="9.5" fill="#cfeaf2" opacity="0.872"/>
<circle cx="195.0" cy="247.0" r="9.5" fill="#cfeaf2" opacity="0.872"/>
<circle cx="221.0" cy="247.0" r="9.5" fill="#cfeaf2" opacity="0.872"/>
<circle cx="247.0" cy="247.0" r="9.5" fill="#cfeaf2" opacity="0.872"/>
<circle cx="273.0" cy="247.0" r="9.5" fill="#cfeaf2" opacity="0.872"/>
<circle cx="299.0" cy="247.0" r="9.5" fill="#cfeaf2" opacity="0.872"/>
<circle cx="325.0" cy="247.0" r="9.5" fill="#cfeaf2" opacity="0.872"/>
<circle cx="351.0" cy="247.0" r="9.5" fill="#cfeaf2" opacity="0.050"/>
<circle cx="39.0" cy="273.0" r="9.5" fill="#cfeaf2" opacity="0.050"/>
<circle cx="65.0" cy="273.0" r="9.5" fill="#cfeaf2" opacity="0.645"/>
<circle cx="91.0" cy="273.0" r="9.5" fill="#cfeaf2" opacity="0.645"/>
<circle cx="117.0" cy="273.0" r="9.5" fill="#cfeaf2" opacity="0.645"/>
<circle cx="143.0" cy="273.0" r="9.5" fill="#cfeaf2" opacity="0.645"/>
<circle cx="169.0" cy="273.0" r="9.5" fill="#cfeaf2" opacity="0.645"/>
<circle cx="195.0" cy="273.0" r="9.5" fill="#cfeaf2" opacity="0.645"/>
<circle cx="221.0" cy="273.0" r="9.5" fill="#cfeaf2" opacity="0.645"/>
<circle cx="247.0" cy="273.0" r="9.5" fill="#cfeaf2" opacity="0.645"/>
<circle cx="273.0" cy="273.0" r="9.5" fill="#cfeaf2" opacity="0.645"/>
<circle cx="299.0" cy="273.0" r="9.5" fill="#cfeaf2" opacity="0.645"/>
<circle cx="325.0" cy="273.0" r="9.5" fill="#cfeaf2" opacity="0.645"/>
<circle cx="351.0" cy="273.0" r="9.5" fill="#cfeaf2" opacity="0.050"/>
<circle cx="39.0" cy="299.0" r="9.5" fill="#cfeaf2" opacity="0.050"/>
<circle cx="65.0" cy="299.0" r="9.5" fill="#cfeaf2" opacity="0.050"/>
<circle cx="91.0" cy="299.0" r="9.5" fill="#cfeaf2" opacity="0.503"/>
<circle cx="117.0" cy="299.0" r="9.5" fill="#cfeaf2" opacity="0.503"/>
<circle cx="143.0" cy="299.0" r="9.5" fill="#cfeaf2" opacity="0.503"/>
<circle cx="169.0" cy="299.0" r="9.5" fill="#cfeaf2" opacity="0.503"/>
<circle cx="195.0" cy="299.0" r="9.5" fill="#cfeaf2" opacity="0.503"/>
<circle cx="221.0" cy="299.0" r="9.5" fill="#cfeaf2" opacity="0.503"/>
<circle cx="247.0" cy="299.0" r="9.5" fill="#cfeaf2" opacity="0.503"/>
<circle cx="273.0" cy="299.0" r="9.5" fill="#cfeaf2" opacity="0.503"/>
<circle cx="299.0" cy="299.0" r="9.5" fill="#cfeaf2" opacity="0.503"/>
<circle cx="325.0" cy="299.0" r="9.5" fill="#cfeaf2" opacity="0.050"/>
<circle cx="351.0" cy="299.0" r="9.5" fill="#cfeaf2" opacity="0.050"/>
<circle cx="39.0" cy="325.0" r="9.5" fill="#cfeaf2" opacity="0.050"/>
<circle cx="65.0" cy="325.0" r="9.5" fill="#cfeaf2" opacity="0.050"/>
<circle cx="91.0" cy="325.0" r="9.5" fill="#cfeaf2" opacity="0.050"/>
<circle cx="117.0" cy="325.0" r="9.5" fill="#cfeaf2" opacity="0.455"/>
<circle cx="143.0" cy="325.0" r="9.5" fill="#cfeaf2" opacity="0.455"/>
<circle cx="169.0" cy="325.0" r="9.5" fill="#cfeaf2" opacity="0.455"/>
<circle cx="195.0" cy="325.0" r="9.5" fill="#cfeaf2" opacity="0.455"/>
<circle cx="221.0" cy="325.0" r="9.5" fill="#cfeaf2" opacity="0.455"/>
<circle cx="247.0" cy="325.0" r="9.5" fill="#cfeaf2" opacity="0.455"/>
<circle cx="273.0" cy="325.0" r="9.5" fill="#cfeaf2" opacity="0.455"/>
<circle cx="299.0" cy="325.0" r="9.5" fill="#cfeaf2" opacity="0.050"/>
<circle cx="325.0" cy="325.0" r="9.5" fill="#cfeaf2" opacity="0.050"/>
<circle cx="351.0" cy="325.0" r="9.5" fill="#cfeaf2" opacity="0.050"/>
<circle cx="39.0" cy="351.0" r="9.5" fill="#cfeaf2" opacity="0.050"/>
<circle cx="65.0" cy="351.0" r="9.5" fill="#cfeaf2" opacity="0.050"/>
<circle cx="91.0" cy="351.0" r="9.5" fill="#cfeaf2" opacity="0.050"/>
<circle cx="117.0" cy="351.0" r="9.5" fill="#cfeaf2" opacity="0.050"/>
<circle cx="143.0" cy="351.0" r="9.5" fill="#cfeaf2" opacity="0.050"/>
<circle cx="169.0" cy="351.0" r="9.5" fill="#cfeaf2" opacity="0.448"/>
<circle cx="195.0" cy="351.0" r="9.5" fill="#cfeaf2" opacity="0.448"/>
<circle cx="221.0" cy="351.0" r="9.5" fill="#cfeaf2" opacity="0.448"/>
<circle cx="247.0" cy="351.0" r="9.5" fill="#cfeaf2" opacity="0.050"/>
<circle cx="273.0" cy="351.0" r="9.5" fill="#cfeaf2" opacity="0.050"/>
<circle cx="299.0" cy="351.0" r="9.5" fill="#cfeaf2" opacity="0.050"/>
<circle cx="325.0" cy="351.0" r="9.5" fill="#cfeaf2" opacity="0.050"/>
<circle cx="351.0" cy="351.0" r="9.5" fill="#cfeaf2" opacity="0.050"/>
</g>
<text x="195.0" y="412" fill="#56d4dd" font-family="ui-monospace,Menlo,monospace" font-size="13" letter-spacing="2" text-anchor="middle">TIDE · 13×13 · BLOOM ↑ RISING</text>
</svg>